<?xml version="1.0" encoding="UTF-8" standalone="no"?>
<svg xmlns="http://www.w3.org/2000/svg" xmlns:xlink="http://www.w3.org/1999/xlink" width="48" height="48">
  <defs>
    <linearGradient id="a">
      <stop offset="0" stop-color="#ffe69b"/>
      <stop offset="1" stop-color="#fff"/>
    </linearGradient>
    <linearGradient id="b">
      <stop offset="0"/>
      <stop offset="1" stop-opacity="0"/>
    </linearGradient>
    <linearGradient xlink:href="#a" id="d" x1="43.93581" x2="20.064686" y1="53.835983" y2="-8.5626707" gradientUnits="userSpaceOnUse"/>
    <radialGradient xlink:href="#b" id="c" cx="23.857143" cy="40" r="17.142857" fx="23.857143" fy="40" gradientTransform="matrix(1 0 0 .5 0 20)" gradientUnits="userSpaceOnUse"/>
  </defs>
  <path fill="url(#c)" d="M41 40a17.142857 8.5714283 0 1 1-34.2857132 0A17.142857 8.5714283 0 1 1 41 40z" color="#000" display="block" opacity=".6" overflow="visible" style="marker:none" transform="matrix(1.07055 0 0 .525 -.892755 22.5)"/>
  <path fill="#73d216" stroke="#4e9a06" stroke-width="1.00000193" d="M45.49996985 23.00004338c0 11.87410558-9.62586427 21.49996985-21.49996985 21.49996985S2.50002979 34.87414896 2.50002979 23.00004338 12.12589442 1.5000729 24 1.5000729s21.49996985 9.62586491 21.49996985 21.4999705z"/>
  <path fill="none" stroke="url(#d)" stroke-width="1.17029738" d="M49.901535 26.635273a23.991123 23.991123 0 1 1-47.9822464 0 23.991123 23.991123 0 1 1 47.9822464 0z" opacity=".34659089" transform="translate(1.860001 .24061974) scale(.85448)"/>
  <path fill="#fff" fill-rule="evenodd" d="M38.99999999 23.0000005s-9.2778508-6.90119-12.4573097-9.44476168c-.81420346-.65136454-2.89042282-.16283732-2.23906122 1.79124079C24.79215228 16.812046 25.99999995 20 25.99999995 20l-17.00000018-.9999999v8l17.00000018-1.00000012s-1.20784767 3.18793947-1.69637088 4.65350642c-.6513616 1.95409283 1.42485776 2.44260533 2.23906123 1.79125712 3.1794589-2.54357408 12.45730969-9.44476302 12.45730969-9.44476302z"/>
  <path fill="#fff" d="M24 3C12.954305 3 4 11.954305 4 23c0 1.686052.232138 3.310816.625 4.875 3.203974 4.793264 13.253522-.120144 20.21875-5.59375 8.00805-6.293106 17.842029 8.359347 19.125 1.4375C43.97715 23.480132 44 23.240675 44 23c0-11.045695-8.954305-20-20-20z" opacity=".25"/>
</svg>